HIERARCHY
ROOT Hips
{
    OFFSET 0.000000 97.120003 0.000000
    CHANNELS 6 Xposition Yposition Zposition Yrotation Xrotation Zrotation
    JOINT RightUpLeg
    {
        OFFSET -11.000000 -0.000000 0.000000
        CHANNELS 3 Yrotation Xrotation Zrotation
        JOINT RightLeg
        {
            OFFSET 0.000000 -45.062000 0.000000
            CHANNELS 3 Yrotation Xrotation Zrotation
            JOINT RightFoot
            {
                OFFSET 0.000000 -42.057999 0.000000
                CHANNELS 3 Yrotation Xrotation Zrotation
                End Site
                {
                    OFFSET 0.000000 -10.000000 15.120000
                }
            }
        }
    }
    JOINT LeftUpLeg
    {
        OFFSET 11.000000 -0.000000 0.000000
        CHANNELS 3 Yrotation Xrotation Zrotation
        JOINT LeftLeg
        {
            OFFSET 0.000000 -45.062000 0.000000
            CHANNELS 3 Yrotation Xrotation Zrotation
            JOINT LeftFoot
            {
                OFFSET 0.000000 -42.057999 0.000000
                CHANNELS 3 Yrotation Xrotation Zrotation
                End Site
                {
                    OFFSET 0.000000 -10.000000 15.120000
                }
            }
        }
    }
    JOINT Spine
    {
        OFFSET 0.000000 8.120000 0.000000
        CHANNELS 3 Yrotation Xrotation Zrotation
        JOINT Spine1
        {
            OFFSET 0.000000 17.980000 0.000000
            CHANNELS 3 Yrotation Xrotation Zrotation
            JOINT Spine2
            {
                OFFSET 0.000000 12.760000 0.000000
                CHANNELS 3 Yrotation Xrotation Zrotation
                JOINT Neck
                {
                    OFFSET 0.000000 19.139999 0.000000
                    CHANNELS 3 Yrotation Xrotation Zrotation
                    JOINT Neck1
                    {
                        OFFSET 0.000000 4.250000 0.000000
                        CHANNELS 3 Yrotation Xrotation Zrotation
                        JOINT Head
                        {
                            OFFSET 0.000000 4.250000 0.000000
                            CHANNELS 3 Yrotation Xrotation Zrotation
                            End Site
                            {
                                OFFSET 0.000000 19.120001 0.000000
                            }
                        }
                    }
                }
                JOINT RightShoulder
                {
                    OFFSET -2.900000 13.340000 0.000000
                    CHANNELS 3 Yrotation Xrotation Zrotation
                    JOINT RightArm
                    {
                        OFFSET -16.100000 0.000000 0.000000
                        CHANNELS 3 Yrotation Xrotation Zrotation
                        JOINT RightForeArm
                        {
                            OFFSET -28.000000 0.000000 0.000000
                            CHANNELS 3 Yrotation Xrotation Zrotation
                            JOINT RightHand
                            {
                                OFFSET -26.000000 0.000000 0.000000
                                CHANNELS 3 Yrotation Xrotation Zrotation
                                JOINT RightHandThumb1
                                {
                                    OFFSET -1.937000 -0.484000 2.518000
                                    CHANNELS 3 Yrotation Xrotation Zrotation
                                    JOINT RightHandThumb2
                                    {
                                        OFFSET -3.872000 0.000000 0.000000
                                        CHANNELS 3 Yrotation Xrotation Zrotation
                                        JOINT RightHandThumb3
                                        {
                                            OFFSET -2.690000 0.000000 0.000000
                                            CHANNELS 3 Yrotation Xrotation Zrotation
                                            End Site
                                            {
                                                OFFSET -2.537000 0.000000 0.000000
                                            }
                                        }
                                    }
                                }
                                JOINT RightInHandIndex
                                {
                                    OFFSET -3.389000 0.535000 2.080000
                                    CHANNELS 3 Yrotation Xrotation Zrotation
                                    JOINT RightHandIndex1
                                    {
                                        OFFSET -5.485000 -0.096000 1.051000
                                        CHANNELS 3 Yrotation Xrotation Zrotation
                                        JOINT RightHandIndex2
                                        {
                                            OFFSET -3.806000 0.000000 0.000000
                                            CHANNELS 3 Yrotation Xrotation Zrotation
                                            JOINT RightHandIndex3
                                            {
                                                OFFSET -2.158000 0.000000 0.000000
                                                CHANNELS 3 Yrotation Xrotation Zrotation
                                                End Site
                                                {
                                                    OFFSET -1.898000 0.000000 0.000000
                                                }
                                            }
                                        }
                                    }
                                }
                                JOINT RightInHandMiddle
                                {
                                    OFFSET -3.556000 0.544000 0.796000
                                    CHANNELS 3 Yrotation Xrotation Zrotation
                                    JOINT RightHandMiddle1
                                    {
                                        OFFSET -5.441000 -0.088000 0.330000
                                        CHANNELS 3 Yrotation Xrotation Zrotation
                                        JOINT RightHandMiddle2
                                        {
                                            OFFSET -4.153000 0.000000 0.000000
                                            CHANNELS 3 Yrotation Xrotation Zrotation
                                            JOINT RightHandMiddle3
                                            {
                                                OFFSET -2.603000 0.000000 0.000000
                                                CHANNELS 3 Yrotation Xrotation Zrotation
                                                End Site
                                                {
                                                    OFFSET -2.076000 0.000000 0.000000
                                                }
                                            }
                                        }
                                    }
                                }
                                JOINT RightInHandRing
                                {
                                    OFFSET -3.539000 0.566000 -0.136000
                                    CHANNELS 3 Yrotation Xrotation Zrotation
                                    JOINT RightHandRing1
                                    {
                                        OFFSET -4.873000 -0.023000 -0.504000
                                        CHANNELS 3 Yrotation Xrotation Zrotation
                                        JOINT RightHandRing2
                                        {
                                            OFFSET -3.619000 0.000000 0.000000
                                            CHANNELS 3 Yrotation Xrotation Zrotation
                                            JOINT RightHandRing3
                                            {
                                                OFFSET -2.511000 0.000000 0.000000
                                                CHANNELS 3 Yrotation Xrotation Zrotation
                                                End Site
                                                {
                                                    OFFSET -1.952000 0.000000 0.000000
                                                }
                                            }
                                        }
                                    }
                                }
                                JOINT RightInHandPinky
                                {
                                    OFFSET -3.324000 0.494000 -1.264000
                                    CHANNELS 3 Yrotation Xrotation Zrotation
                                    JOINT RightHandPinky1
                                    {
                                        OFFSET -4.354000 -0.023000 -1.147000
                                        CHANNELS 3 Yrotation Xrotation Zrotation
                                        JOINT RightHandPinky2
                                        {
                                            OFFSET -2.898000 0.000000 0.000000
                                            CHANNELS 3 Yrotation Xrotation Zrotation
                                            JOINT RightHandPinky3
                                            {
                                                OFFSET -1.831000 0.000000 0.000000
                                                CHANNELS 3 Yrotation Xrotation Zrotation
                                                End Site
                                                {
                                                    OFFSET -1.730000 0.000000 0.000000
                                                }
                                            }
                                        }
                                    }
                                }
                            }
                        }
                    }
                }
                JOINT LeftShoulder
                {
                    OFFSET 2.900000 13.340000 0.000000
                    CHANNELS 3 Yrotation Xrotation Zrotation
                    JOINT LeftArm
                    {
                        OFFSET 16.100000 0.000000 0.000000
                        CHANNELS 3 Yrotation Xrotation Zrotation
                        JOINT LeftForeArm
                        {
                            OFFSET 28.000000 0.000000 0.000000
                            CHANNELS 3 Yrotation Xrotation Zrotation
                            JOINT LeftHand
                            {
                                OFFSET 26.000000 0.000000 0.000000
                                CHANNELS 3 Yrotation Xrotation Zrotation
                                JOINT LeftHandThumb1
                                {
                                    OFFSET 1.937000 -0.484000 2.518000
                                    CHANNELS 3 Yrotation Xrotation Zrotation
                                    JOINT LeftHandThumb2
                                    {
                                        OFFSET 3.872000 0.000000 0.000000
                                        CHANNELS 3 Yrotation Xrotation Zrotation
                                        JOINT LeftHandThumb3
                                        {
                                            OFFSET 2.690000 0.000000 0.000000
                                            CHANNELS 3 Yrotation Xrotation Zrotation
                                            End Site
                                            {
                                                OFFSET 2.537000 0.000000 0.000000
                                            }
                                        }
                                    }
                                }
                                JOINT LeftInHandIndex
                                {
                                    OFFSET 3.389000 0.535000 2.080000
                                    CHANNELS 3 Yrotation Xrotation Zrotation
                                    JOINT LeftHandIndex1
                                    {
                                        OFFSET 5.485000 -0.096000 1.051000
                                        CHANNELS 3 Yrotation Xrotation Zrotation
                                        JOINT LeftHandIndex2
                                        {
                                            OFFSET 3.806000 0.000000 0.000000
                                            CHANNELS 3 Yrotation Xrotation Zrotation
                                            JOINT LeftHandIndex3
                                            {
                                                OFFSET 2.158000 0.000000 0.000000
                                                CHANNELS 3 Yrotation Xrotation Zrotation
                                                End Site
                                                {
                                                    OFFSET 1.898000 0.000000 0.000000
                                                }
                                            }
                                        }
                                    }
                                }
                                JOINT LeftInHandMiddle
                                {
                                    OFFSET 3.556000 0.544000 0.796000
                                    CHANNELS 3 Yrotation Xrotation Zrotation
                                    JOINT LeftHandMiddle1
                                    {
                                        OFFSET 5.441000 -0.088000 0.330000
                                        CHANNELS 3 Yrotation Xrotation Zrotation
                                        JOINT LeftHandMiddle2
                                        {
                                            OFFSET 4.153000 0.000000 0.000000
                                            CHANNELS 3 Yrotation Xrotation Zrotation
                                            JOINT LeftHandMiddle3
                                            {
                                                OFFSET 2.603000 0.000000 0.000000
                                                CHANNELS 3 Yrotation Xrotation Zrotation
                                                End Site
                                                {
                                                    OFFSET 2.076000 0.000000 0.000000
                                                }
                                            }
                                        }
                                    }
                                }
                                JOINT LeftInHandRing
                                {
                                    OFFSET 3.539000 0.566000 -0.136000
                                    CHANNELS 3 Yrotation Xrotation Zrotation
                                    JOINT LeftHandRing1
                                    {
                                        OFFSET 4.873000 -0.023000 -0.504000
                                        CHANNELS 3 Yrotation Xrotation Zrotation
                                        JOINT LeftHandRing2
                                        {
                                            OFFSET 3.619000 0.000000 0.000000
                                            CHANNELS 3 Yrotation Xrotation Zrotation
                                            JOINT LeftHandRing3
                                            {
                                                OFFSET 2.511000 0.000000 0.000000
                                                CHANNELS 3 Yrotation Xrotation Zrotation
                                                End Site
                                                {
                                                    OFFSET 1.952000 0.000000 0.000000
                                                }
                                            }
                                        }
                                    }
                                }
                                JOINT LeftInHandPinky
                                {
                                    OFFSET 3.324000 0.494000 -1.264000
                                    CHANNELS 3 Yrotation Xrotation Zrotation
                                    JOINT LeftHandPinky1
                                    {
                                        OFFSET 4.354000 -0.023000 -1.147000
                                        CHANNELS 3 Yrotation Xrotation Zrotation
                                        JOINT LeftHandPinky2
                                        {
                                            OFFSET 2.898000 0.000000 0.000000
                                            CHANNELS 3 Yrotation Xrotation Zrotation
                                            JOINT LeftHandPinky3
                                            {
                                                OFFSET 1.831000 0.000000 0.000000
                                                CHANNELS 3 Yrotation Xrotation Zrotation
                                                End Site
                                                {
                                                    OFFSET 1.730000 0.000000 0.000000
                                                }
                                            }
                                        }
                                    }
                                }
                            }
                        }
                    }
                }
            }
        }
    }
}
MOTION
Frames: 4
Frame Time: 0.011111
0.000000 97.119995 0.000000 0.000000 0.000000 0.000000 0.000000 0.000000 0.000000 0.000000 0.000000 0.000000 0.000000 0.000000 0.000000 0.000000 0.000000 0.000000 0.000000 0.000000 0.000000 0.000000 0.000000 0.000000 0.000000 0.000000 0.000000 0.000000 0.000000 0.000000 0.000000 0.000000 0.000000 0.000000 0.000000 0.000000 0.000000 0.000000 0.000000 0.000000 0.000000 0.000000 0.000000 0.000000 0.000000 0.000000 0.000000 0.000000 0.000000 0.000000 0.000000 0.000000 0.000000 0.000000 0.000000 0.000000 0.000000 0.000000 0.000000 0.000000 0.000000 0.000000 0.000000 0.000000 0.000000 0.000000 0.000000 0.000000 0.000000 0.000000 0.000000 0.000000 0.000000 0.000000 0.000000 0.000000 0.000000 0.000000 0.000000 0.000000 0.000000 0.000000 0.000000 0.000000 0.000000 0.000000 0.000000 0.000000 0.000000 0.000000 0.000000 0.000000 0.000000 0.000000 0.000000 0.000000 0.000000 0.000000 0.000000 0.000000 0.000000 0.000000 0.000000 0.000000 0.000000 0.000000 0.000000 0.000000 0.000000 0.000000 0.000000 0.000000 0.000000 0.000000 0.000000 0.000000 0.000000 0.000000 0.000000 0.000000 0.000000 0.000000 0.000000 0.000000 0.000000 0.000000 0.000000 0.000000 0.000000 0.000000 0.000000 0.000000 0.000000 0.000000 0.000000 0.000000 0.000000 0.000000 0.000000 0.000000 0.000000 0.000000 0.000000 0.000000 0.000000 0.000000 0.000000 0.000000 0.000000 0.000000 0.000000 0.000000 0.000000 0.000000 0.000000 0.000000 0.000000 0.000000 0.000000 0.000000 0.000000 0.000000 0.000000 0.000000 0.000000 0.000000 0.000000 0.000000 0.000000 0.000000 0.000000 0.000000 0.000000 0.000000 0.000000 0.000000 0.000000 0.000000 0.000000 0.000000
-45.235165 97.124641 9.083886 88.804611 -177.073807 179.884262 158.110733 175.432480 177.970001 10.053179 1.583149 -0.076519 173.964203 -175.658386 -179.693451 168.878250 176.223587 -178.695892 2.927462 1.673452 -0.626259 6.166400 -3.651662 -2.716811 0.006905 4.124456 0.089457 0.006729 4.045136 0.148630 0.012982 2.934521 0.195274 180.000000 -176.409973 -179.657135 180.000000 -175.811630 -179.644882 174.224686 -176.946167 -179.478760 10.546320 0.610175 -0.196359 17.705812 -7.251575 81.706154 178.954391 -172.607803 -179.851440 175.520294 170.446762 174.839279 55.536671 42.812748 14.869423 0.000002 -0.000000 7.598695 0.000003 -0.000002 5.060718 0.000000 -0.000000 0.000000 15.000002 -0.000009 29.451855 180.000000 179.999985 -155.903030 0.000010 -0.000001 16.867880 0.000000 -0.000000 0.000000 180.000000 -179.999985 -148.979660 180.000000 -180.000000 -148.979660 180.000000 179.999985 -159.340454 0.000000 -0.000000 0.000000 170.000000 -179.999985 -152.680191 180.000000 180.000000 -152.680191 180.000000 180.000000 -161.804993 0.000000 -0.000000 0.000000 160.000015 180.000000 -161.812347 0.000002 -0.000006 27.281483 180.000000 180.000000 -161.830521 2.655899 -1.427801 -1.430515 166.114868 -171.740234 98.445740 179.946732 175.679153 -179.533386 7.871808 22.253206 4.243961 130.901428 132.805466 169.900513 0.000002 0.000000 -7.440997 0.000000 -0.000003 -4.955706 0.000002 0.000000 -0.000003 165.000015 179.999985 149.550919 0.000005 -0.000001 -24.912882 180.000000 -179.999985 162.560989 0.000002 0.000000 -0.000003 0.000001 0.000001 -32.142838 180.000000 -180.000000 147.857162 0.000003 0.000001 -21.407137 0.000002 0.000000 -0.000003 10.000002 0.000002 -30.454075 0.000002 0.000004 -30.454062 180.000000 179.999985 159.717590 0.000002 0.000000 -0.000003 19.999996 0.000005 -23.588350 180.000000 179.999985 144.617477 0.000003 0.000002 -23.564766
-45.239262 97.115578 9.094277 88.805099 -177.069260 179.883408 158.085938 175.433319 177.959732 10.085604 1.593740 -0.075589 173.957230 -175.653320 -179.688980 168.875916 176.227631 -178.699936 2.895724 1.696256 -0.630736 6.196045 -3.671568 -2.715889 0.005757 4.127460 0.086752 0.004839 4.048097 0.153276 0.003539 2.936665 0.200713 0.000007 -3.579764 0.349435 0.000001 -4.176397 0.361924 174.225479 -176.955414 -179.475677 10.549882 0.610564 -0.195124 17.746347 -7.260404 81.678978 178.969559 -172.563110 -179.839279 175.521851 170.449997 174.840225 55.528988 42.815498 14.861720 180.000000 -179.999985 -172.401764 180.000000 -180.000000 -174.939590 0.000000 0.000002 0.000000 14.999990 0.000001 29.446417 0.000007 -0.000002 24.092512 0.000003 -0.000001 16.864765 0.000000 0.000002 0.000000 0.000000 -0.000000 31.022589 0.000000 0.000001 31.022606 179.999985 179.999985 -159.338959 0.000000 0.000002 0.000000 170.000000 179.999985 -152.675476 0.000002 0.000003 27.324524 179.999985 179.999985 -161.801849 0.000000 0.000002 0.000000 160.000000 179.999985 -161.810089 0.000004 -0.000012 27.284842 0.000006 -0.000004 18.171703 2.660386 -1.426986 -1.434407 166.113159 -171.737534 98.447060 179.947830 175.659836 -179.539856 7.867763 22.277157 4.247341 130.919861 132.812134 169.925934 180.000000 -179.999985 172.561005 0.000003 0.000000 -4.954357 0.000000 -0.000000 0.000000 165.000015 180.000000 149.554504 180.000000 -179.999985 155.090057 179.999985 -179.999985 162.563034 0.000000 -0.000000 0.000000 0.000004 -0.000002 -32.138714 0.000007 0.000000 -32.138710 180.000000 -179.999985 158.595612 0.000000 -0.000000 0.000000 10.000000 -0.000002 -30.450981 0.000007 0.000000 -30.450989 180.000000 -179.999985 159.719650 0.000000 -0.000000 0.000000 20.000004 -0.000003 -23.588421 180.000000 -179.999985 144.617371 0.000000 0.000000 -23.564829
-45.242142 97.113274 9.104078 88.803589 -177.060532 179.878937 158.066772 175.430405 177.951447 10.111344 1.605165 -0.071241 173.952545 -175.645752 -179.686234 168.873016 176.224686 -178.699570 2.858761 1.712767 -0.639277 6.235484 -3.683406 -2.710915 0.005369 4.132081 0.084896 0.003691 4.052637 0.159484 179.997452 177.059998 -179.791580 179.999985 -176.428757 -179.643967 0.000013 -4.166447 0.368768 174.222641 -176.963135 -179.472229 10.544366 0.605077 -0.193145 17.779900 -7.261425 81.658020 178.987808 -172.534149 -179.830368 175.521362 170.454529 174.839203 55.530071 42.817951 14.865555 0.000000 -0.000000 7.598903 0.000000 -0.000000 5.060873 180.000000 -180.000000 180.000000 15.000017 -0.000003 29.447277 180.000000 179.999985 -155.906754 0.000003 -0.000003 16.865261 180.000000 -180.000000 180.000000 180.000000 -179.999985 -148.983109 0.000000 -0.000000 31.016882 0.000006 -0.000005 20.657249 180.000000 -180.000000 180.000000 170.000000 -179.999985 -152.678299 0.000004 -0.000005 27.321678 0.000004 0.000003 18.196243 180.000000 -180.000000 180.000000 160.000015 -180.000000 -161.809647 180.000000 -179.999985 -152.714447 0.000004 0.000005 18.172171 2.658064 -1.428734 -1.433527 166.075821 -171.745529 98.444572 179.945190 175.679535 -179.539612 7.863538 22.275913 4.252610 130.924149 132.807648 169.927261 180.000000 180.000000 172.560562 0.000000 -0.000002 -4.954667 0.000000 -0.000000 0.000003 165.000015 -180.000000 149.559738 0.000007 0.000006 -24.905668 0.000004 -0.000002 -17.433960 0.000000 -0.000000 0.000003 180.000000 179.999985 147.864975 0.000002 -0.000001 -32.135017 180.000000 179.999985 158.598068 0.000000 -0.000000 0.000003 10.000001 0.000006 -30.448116 180.000000 179.999985 149.551910 0.000003 0.000002 -20.278446 0.000000 -0.000000 0.000003 19.999994 0.000009 -23.594036 180.000000 180.000000 144.608948 0.000002 0.000009 -23.570436
